<svg  viewBox="0 0 21 21" fill="none" xmlns="http://www.w3.org/2000/svg">
<path d="M20.0731 15.4511C19.4635 13.8915 15.3117 12.0221 13.8831 12.8954C13.1088 13.3669 13.6139 16.1249 10.7874 14.7787C9.67972 14.25 8.59573 13.4283 7.668 12.5103C6.74863 11.5826 5.92692 10.4987 5.39958 9.38959C4.05332 6.56459 6.81141 7.06821 7.28295 6.29534C8.15488 4.8654 6.28546 0.715093 4.72715 0.105451C3.75896 -0.272611 1.59378 1.03317 0.959011 1.85486C-0.424918 3.64472 -0.117998 7.7755 1.76677 10.8697C2.62893 12.2899 3.89009 13.7617 5.13033 15.048C6.4166 16.2896 7.88842 17.5479 9.30862 18.4115C12.4015 20.2962 16.5324 20.6031 18.3237 19.2192C19.1454 18.583 20.4498 16.4179 20.0731 15.4511Z" fill="#199C04"/>
</svg>
