<svg viewBox="0 0 22 22" fill="none" xmlns="http://www.w3.org/2000/svg">
<path d="M21.9267 16.9217C21.2574 15.2093 16.6992 13.1569 15.1307 14.1157C14.2807 14.6334 14.8351 17.6615 11.732 16.1834C10.5158 15.6029 9.32573 14.7008 8.30717 13.693C7.2978 12.6745 6.39565 11.4844 5.81668 10.2667C4.33863 7.16516 7.36673 7.71808 7.88443 6.86956C8.84172 5.29963 6.78929 0.743016 5.07842 0.0736914C4.01544 -0.341381 1.6383 1.09223 0.941391 1.99436C-0.578021 3.95945 -0.241055 8.49462 1.82823 11.8918C2.77479 13.451 4.15942 15.0669 5.52107 16.479C6.93327 17.8422 8.54917 19.2237 10.1084 20.1718C13.5041 22.241 18.0394 22.578 20.006 21.0586C20.9082 20.3602 22.3403 17.9831 21.9267 16.9217Z" fill="#006EFF"/>
</svg>
