<svg width="10" height="11" viewBox="0 0 10 11" fill="none" xmlns="http://www.w3.org/2000/svg">
<path d="M5.25982 0.719116C2.67423 0.719116 0.544922 2.84842 0.544922 5.43401C0.544922 8.0196 2.67423 10.1489 5.25982 10.1489C7.8454 10.1489 9.97471 8.0196 9.97471 5.43401C9.97471 2.84842 7.80738 0.719116 5.25982 0.719116ZM5.25982 9.54053C3.01644 9.54053 1.1533 7.67739 1.1533 5.43401C1.1533 3.19063 3.01644 1.32749 5.25982 1.32749C7.50319 1.32749 9.36634 3.19063 9.36634 5.43401C9.36634 7.67739 7.50319 9.54053 5.25982 9.54053Z" fill="#A1A1A1"/>
<path d="M5.67922 7.63969C5.67922 7.8298 5.52713 8.01992 5.29899 8.01992H5.18492C4.9948 8.01992 4.80469 7.86783 4.80469 7.63969V4.48375C4.80469 4.29363 4.95678 4.10352 5.18492 4.10352H5.29899C5.48911 4.10352 5.67922 4.25561 5.67922 4.48375V7.63969Z" fill="#A1A1A1"/>
<path d="M5.26005 3.68515C5.49105 3.68515 5.67831 3.49789 5.67831 3.26689C5.67831 3.03589 5.49105 2.84863 5.26005 2.84863C5.02906 2.84863 4.8418 3.03589 4.8418 3.26689C4.8418 3.49789 5.02906 3.68515 5.26005 3.68515Z" fill="#A1A1A1"/>
</svg>
