<svg width="209" height="91" viewBox="0 0 209 91" fill="none" xmlns="http://www.w3.org/2000/svg">
<g clip-path="url(#clip0)">
<path d="M208.8 88.3L195.3 68.6L207.7 50.7C207.9 50.5 207.9 50.2999 207.9 50V49.5999V41.4C207.9 40.6 207.2 39.9 206.4 39.9H120.3C120.7 39.8 121 39.7 121.4 39.5C124.2 38.2999 126.3 36.5 127.8 34.0999C129.3 31.6999 130.2 28.6 130.3 24.9C130.4 23.1999 130.4 21.7999 130.4 20.5C130.4 19.2 130.4 17.7 130.3 16C130.2 12.5 129.3 9.49995 127.7 7.09995C126.1 4.69995 123.9 2.89995 121.1 1.59995C118.3 0.399951 115 -0.300049 111.1 -0.300049H95C94.6 -0.300049 94.2 -0.200049 93.9 0.0999512C93.6 0.399951 93.4 0.799951 93.4 1.19995V39.5999C93.4 39.6999 93.4 39.7 93.4 39.7999H89.5C89.5 39.7 89.5 39.5999 89.5 39.5L75.9 1.79995C75.8 1.39995 75.5 0.999951 75.1 0.599951C74.7 0.199951 74.1 -4.88162e-05 73.4 -4.88162e-05H62.6C61.9 -4.88162e-05 61.3 0.199951 60.9 0.599951C60.5 0.999951 60.2 1.39995 60.1 1.79995L46.6 39.7999C46.6 39.8999 46.6 40 46.6 40.0999H42.5C42.5 40 42.5 40 42.5 39.9V1.49995C42.5 1.09995 42.4 0.699951 42.1 0.399951C41.8 0.0999512 41.4 -4.88162e-05 41 -4.88162e-05H33.1C32.4 -4.88162e-05 31.9 0.199951 31.5 0.599951C31.1 0.999951 30.9 1.29995 30.8 1.39995L21.3 17.9L11.8 1.39995C11.7 1.19995 11.4 0.999951 11.1 0.599951C10.7 0.199951 10.2 -4.88162e-05 9.5 -4.88162e-05H1.6C1.2 -4.88162e-05 0.8 0.0999512 0.5 0.399951C0.2 0.699951 0 1.09995 0 1.49995V39.9C0 40 0 40.1 0 40.2V48.2C0 49 0.7 49.7 1.5 49.7H14.5C14.4 49.7 14.3 49.7999 14.2 49.7999C11.6 50.8999 9.6 52.4 8.2 54.4C6.8 56.4 6 58.6 6 61.2C6 63.7 6.6 65.9 7.7 67.6C8.9 69.2999 10.6 70.7 12.8 71.7C15 72.7 17.6 73.5 20.7 74C22.9 74.4 24.6 74.7999 25.9 75.1C27.2 75.5 28.1 75.9 28.6 76.3C29.1 76.7 29.4 77.3 29.4 78C29.4 78.9 28.9 79.6 27.9 80C26.9 80.5 25.5 80.7 23.7 80.7C22.7 80.7 21.8 80.6 21.1 80.4C20.3 80.2 19.7 79.9 19.3 79.5C18.8 79.1 18.4 78.7 18.1 78.3C17.7 78 17.4 77.7 17.1 77.6C16.8 77.4 16.3 77.3 15.8 77.3H6.2C5.8 77.3 5.5 77.3999 5.3 77.7C5.1 78 4.9 78.2 4.9 78.6C5 80.7 5.7 82.7 7.1 84.6C8.5 86.5 10.5 88 13.3 89.2C16 90.3999 19.5 90.9 23.6 90.9C27.2 90.9 30.5 90.4 33.3 89.3C36.1 88.2 38.3 86.7 40 84.6C41.6 82.6 42.4 80.2 42.4 77.4C42.4 74.9 41.9 72.7999 40.8 71.2C39.7 69.5 38 68.2 35.7 67.2C33.4 66.2 30.4 65.4 26.6 64.8C24.6 64.4 23.1 64 22 63.7C20.9 63.4 20.1 63 19.7 62.5C19.3 62.0999 19 61.5999 19 61C19 60.0999 19.4 59.5 20.1 59C20.8 58.5 21.8 58.2999 23.2 58.2999C24.4 58.2999 25.4 58.5 26.2 59C27 59.4 27.5 59.9 27.7 60.5C28 60.9 28.3 61.0999 28.6 61.2999C28.9 61.5 29.3 61.5 29.8 61.5H39.7C40 61.5 40.3 61.3999 40.6 61.0999C40.9 60.7999 41 60.5 41 60.2C41 58.9 40.5 57.6 39.8 56.2C39 54.7999 37.9 53.5 36.4 52.2999C35.2 51.2999 33.7 50.5 31.9 49.7999H45C44.9 50 44.9 50.2 44.9 50.4V58.2999C44.9 58.7 45 59.1 45.3 59.4C45.6 59.7 46 59.7999 46.4 59.7999H56.6V88.7C56.6 89.1 56.7 89.5 57 89.8C57.3 90.1 57.7 90.2 58.1 90.2H68C68.4 90.2 68.8 90.1 69.1 89.8C69.4 89.5 69.5 89.1 69.5 88.7V59.7999H79.7C80.1 59.7999 80.5 59.7 80.8 59.4C81.1 59.1 81.2 58.7 81.2 58.2999V50.4C81.2 50.2 81.2 50 81.1 49.7999H96.7C96.5 50.0999 96.3 50.4 96.2 50.7L82.8 88.6C82.8 88.7 82.7 88.9 82.7 89C82.7 89.4 82.8 89.7 83.1 89.9C83.3 90.2 83.6 90.3 84 90.3H93.1C93.8 90.3 94.3 90.1 94.6 89.8C94.9 89.5 95.1 89.2 95.2 88.9L97 83.9H111.3L113.1 88.9C113.2 89.2 113.4 89.5 113.8 89.8C114.1 90.1 114.6 90.3 115.3 90.3H124.4C124.8 90.3 125.1 90.2 125.3 89.9C125.6 89.6 125.7 89.3 125.7 89C125.7 88.8 125.7 88.7 125.6 88.6L112 50.7C111.9 50.4 111.7 50.0999 111.5 49.7999H138.4C138.2 49.8999 137.9 50 137.7 50C134.9 51.2 132.6 53 131 55.4C129.4 57.8 128.5 60.8 128.3 64.3C128.3 66 128.2 67.7999 128.2 69.6C128.2 71.4 128.2 73.2 128.3 74.8C128.5 78.4 129.3 81.4 130.9 83.8C132.5 86.2 134.7 87.9 137.5 89.1C140.3 90.2999 143.6 90.8 147.3 90.8C149.9 90.8 152.3 90.5 154.6 89.9C156.9 89.3 158.9 88.4 160.7 87.1C162.5 85.7999 163.9 84.3 164.9 82.5C165.9 80.7 166.5 78.5 166.5 76.1C166.5 75.7 166.4 75.3999 166.1 75.2C165.8 75 165.5 74.8 165.2 74.8H155.2C154.6 74.8 154.2 74.9 153.9 75.1C153.6 75.2999 153.4 75.7 153.2 76.4C152.7 78 152 79.1 151 79.8C150 80.5 148.8 80.7 147.4 80.7C145.7 80.7 144.3 80.2 143.3 79.3C142.3 78.4 141.7 76.7 141.6 74.4C141.5 71 141.5 67.7 141.6 64.4C141.7 62.1 142.2 60.4 143.3 59.5C144.3 58.5999 145.7 58.0999 147.4 58.0999C148.8 58.0999 150 58.4 151 59C152 59.5999 152.7 60.7 153.3 62.4C153.5 63 153.7 63.3999 154 63.5999C154.3 63.7999 154.7 64 155.3 64H165.3C165.7 64 166 63.8999 166.2 63.5999C166.5 63.2999 166.6 63 166.6 62.7C166.6 60.2999 166 58.0999 165 56.2999C164 54.5 162.6 53 160.8 51.7C159.5 50.7999 158.1 50.0999 156.6 49.5H172.1C172 49.7 172 49.8999 172 50.0999V88.5C172 88.9 172.2 89.2999 172.5 89.6C172.8 89.9 173.2 90 173.6 90H183C183.4 90 183.8 89.9 184.1 89.6C184.4 89.2999 184.5 88.9 184.5 88.5V75.2L194 88.9C194.1 89.1 194.3 89.2999 194.7 89.7C195.1 90.1 195.7 90.2 196.4 90.2H207.5C207.9 90.2 208.2 90.1 208.4 89.8C208.7 89.5 208.8 89.2 208.8 88.9C209 88.7 208.9 88.5 208.8 88.3ZM106.2 10.1H110.9C112.9 10.1 114.4 10.6 115.6 11.6C116.8 12.6 117.4 14.1999 117.5 16.2999C117.5 17.4 117.6 18.4 117.6 19.2999C117.6 20.1999 117.6 21.1 117.6 22C117.6 22.9 117.6 23.9 117.5 25.1C117.5 26.6 117.2 27.8 116.7 28.7C116.2 29.6 115.5 30.3 114.6 30.7C113.7 31.1 112.6 31.4 111.3 31.4H106.3V10.1H106.2ZM12 40.0999C12 40 12 40 12 39.9V20.7L17.3 30.1C17.5 30.4 17.8 30.7 18.1 31C18.4 31.2999 18.8 31.5 19.4 31.5H23C23.6 31.5 24 31.2999 24.4 31C24.7 30.7 25 30.4 25.2 30.1L30.5 20.7V39.9C30.5 40 30.5 40 30.5 40.0999H12ZM68 11.8L72.4 25.1H63.6L68 11.8ZM59 40.0999L60.8 35.0999H75.1L76.9 40.0999H59ZM99.8 73.9L104.2 60.5999L108.6 73.9H99.8ZM193.5 50.0999L184.7 62.7999V50.4C184.7 50.2 184.7 50 184.6 49.7999H193.8C193.7 49.8999 193.6 50 193.5 50.0999Z" fill="#E50914"/>
<path d="M13.8464 79.8535L13.866 79.8731L13.8877 79.8904C14.446 80.3371 15.1076 80.665 15.8626 80.8807L15.8706 80.883L15.8787 80.885C16.7218 81.0958 17.5628 81.1999 18.6 81.1999C20.4204 81.1999 21.9166 81.0007 23.0236 80.4472C24.1302 79.8939 24.8 79.0506 24.8 78C24.8 77.1206 24.4081 76.5009 23.8536 75.9464C23.536 75.6289 23.1165 75.3985 22.6423 75.2009C22.1666 75.0027 21.594 74.8211 20.947 74.6221C19.6832 74.2332 18.0604 73.9385 16.038 73.5713C15.9231 73.5505 15.8069 73.5294 15.6894 73.508L15.6895 73.508L15.6822 73.5068C12.7174 73.0126 10.0605 72.2237 7.9069 71.2448C5.7855 70.2805 4.16059 68.9392 3.01661 67.3231C2.07975 65.818 1.5 63.7188 1.5 61.2999C1.5 58.801 2.16908 56.7078 3.6 54.8L3.60492 54.7934L3.60962 54.7867C4.9412 52.8844 6.95485 51.4346 9.3981 50.359C11.9292 49.2888 14.8609 48.7 18.2 48.7C20.95 48.7 23.4948 49.0924 25.6387 49.7733C27.8052 50.5619 29.5474 51.4382 30.9877 52.5904C32.4416 53.7535 33.4991 55.0061 34.2659 56.348C35.0349 57.6939 35.4 58.9087 35.4 60.0999C35.4 60.4123 35.3283 60.5135 35.2226 60.5839C35.1437 60.6366 35.0795 60.6811 35.0256 60.7185C34.8227 60.8593 34.764 60.9 34.6 60.9H24.7C24.3018 60.9 23.977 60.8268 23.7202 60.7458C23.4688 60.5773 23.258 60.4262 23.0442 60.1572C22.7643 59.4194 22.1311 58.9548 21.365 58.476L21.3449 58.4634L21.3236 58.4527C20.4625 58.0222 19.3864 57.7 18.1 57.7C16.7757 57.7 15.5418 57.8985 14.7094 58.4931C14.32 58.7712 13.9876 59.0959 13.7544 59.5001C13.5188 59.9085 13.4 60.3713 13.4 60.9C13.4 61.6245 13.6492 62.2695 14.2665 62.7733C14.7573 63.2516 15.6453 63.6757 16.7291 64.0698L16.7485 64.0769L16.7684 64.0823C17.8727 64.3835 19.3854 64.7869 21.4019 65.1902L21.4119 65.1922L21.422 65.1938C25.2137 65.7925 28.1533 66.484 30.3843 67.551L30.3924 67.5549L30.4006 67.5585C32.6238 68.5251 34.2439 69.8671 35.284 71.3775C36.3161 72.9754 36.8 74.8724 36.8 77.3C36.8 79.9977 36.0319 82.2847 34.5096 84.1876C32.9711 86.1107 30.8479 87.6608 28.0227 88.7324L28.0226 88.7323L28.0114 88.7369C25.3799 89.809 22.2454 90.4 18.7 90.4C14.6478 90.4 11.2185 89.8069 8.59586 88.7398C5.94924 87.5625 3.93364 86.1099 2.60253 84.3033C1.26111 82.4829 0.597284 80.5811 0.500032 78.5886C0.50176 78.2851 0.572947 78.1856 0.677351 78.116C0.756338 78.0633 0.820454 78.0188 0.874382 77.9814C1.07733 77.8406 1.13599 77.8 1.3 77.8H10.7C11.2496 77.8 11.5374 77.8925 11.7226 78.016C11.8069 78.0722 11.896 78.1269 11.9799 78.1782L12.005 78.1935C12.0822 78.2406 12.156 78.2857 12.2296 78.333C12.3931 78.4381 12.5336 78.5406 12.6464 78.6535L13.2464 79.2535L13.8464 79.8535Z" fill="white" stroke="#E50914"/>
<path d="M52.8 89.7112C52.7055 89.6708 52.6233 89.6161 52.5536 89.5463C52.3804 89.3732 52.3 89.1228 52.3 88.7999V59.7999V59.2999H51.8H41.5C41.1771 59.2999 40.9267 59.2195 40.7536 59.0463C40.5804 58.8732 40.5 58.6228 40.5 58.2999V50.3999C40.5 50.077 40.5804 49.8266 40.7536 49.6535C40.9267 49.4803 41.1771 49.3999 41.5 49.3999H74.8C75.1229 49.3999 75.3733 49.4803 75.5464 49.6535C75.7196 49.8266 75.8 50.077 75.8 50.3999V58.2999C75.8 58.6228 75.7196 58.8732 75.5464 59.0463C75.3733 59.2195 75.1229 59.2999 74.8 59.2999H64.6H64.1V59.7999V88.6999C64.1 89.0228 64.0196 89.2732 63.8464 89.4464C63.6733 89.6195 63.4229 89.6999 63.1 89.6999H53.3H52.8V89.7112Z" fill="white" stroke="#E50914"/>
<path d="M78.2002 88.9338C78.2003 88.9236 78.2004 88.9145 78.2006 88.9064L78.2332 88.8738L78.271 88.7677L91.7608 50.8964C91.9549 50.5085 92.1243 50.1827 92.4536 49.8535C92.7386 49.5684 93.0993 49.3999 93.8 49.3999H104.6C105.301 49.3999 105.661 49.5684 105.946 49.8535C106.332 50.2386 106.549 50.5583 106.615 50.8212L106.621 50.8453L106.629 50.8688L120.209 88.7127C120.216 88.7587 120.226 88.7971 120.233 88.8221C120.246 88.8702 120.263 88.9192 120.274 88.9534L120.276 88.958C120.287 88.993 120.295 89.0155 120.3 89.0328C120.295 89.3195 120.225 89.4159 120.123 89.4839L120.081 89.5113L120.046 89.5463C119.839 89.7537 119.666 89.7999 119.5 89.7999H110.4C109.789 89.7999 109.433 89.6259 109.254 89.4464C109.008 89.2003 108.837 88.9539 108.65 88.6731L106.87 83.7305L106.751 83.3999H106.4H92.1H91.7486L91.6296 83.7305L89.8296 88.7305L89.8294 88.7305L89.8257 88.7418C89.7571 88.9474 89.6095 89.1833 89.3465 89.4464C89.1669 89.6259 88.8105 89.7999 88.2 89.7999H79C78.6877 89.7999 78.5865 89.7282 78.516 89.6226C78.4122 89.4668 78.3307 89.3433 78.2722 89.2263C78.2143 89.1104 78.2 89.0406 78.2 88.9999C78.2 88.9744 78.2 88.9533 78.2002 88.9338ZM94.3253 73.7429L94.108 74.3999H94.8H103.6H104.292L104.075 73.7429L99.6747 60.4429L99.2 59.008L98.7253 60.4429L94.3253 73.7429Z" fill="white" stroke="#E50914"/>
<path d="M124.099 64.4294L124.099 64.4278C124.295 60.8984 125.175 58.0891 126.716 55.7774C128.255 53.4688 130.474 51.7268 133.197 50.5596C135.923 49.3914 139.154 48.8 142.7 48.8C145.26 48.8 147.618 49.0954 149.874 49.6839C152.122 50.2703 154.064 51.1462 155.807 52.4054C157.557 53.6693 158.904 55.1164 159.863 56.8429C160.821 58.5667 161.4 60.6829 161.4 63C161.4 63.3124 161.328 63.4136 161.223 63.484L161.181 63.5115L161.146 63.5465C160.939 63.7538 160.766 63.8001 160.6 63.8001H150.6C150.046 63.8001 149.812 63.7054 149.654 63.5465L149.619 63.5115L149.577 63.484C149.534 63.4548 149.456 63.3711 149.354 63.1786C149.26 62.9994 149.172 62.7832 149.073 62.536C148.549 60.7684 147.691 59.5517 146.557 58.8713C145.465 58.2161 144.172 57.9001 142.7 57.9001C140.902 57.9001 139.374 58.4303 138.266 59.4284C137.116 60.4627 136.503 62.3298 136.4 64.6783L136.4 64.6783L136.4 64.6844C136.3 67.8951 136.3 71.3053 136.4 74.7147L136.4 74.7147L136.4 74.7218C136.501 77.0382 137.003 78.9325 138.274 79.9794C139.382 80.9725 140.906 81.5 142.7 81.5C144.172 81.5 145.465 81.184 146.557 80.5288C147.716 79.8334 148.464 78.4883 148.976 76.8538C149.074 76.5584 149.165 76.3137 149.26 76.1237C149.359 75.9247 149.436 75.8435 149.477 75.8161C149.663 75.6926 149.95 75.6 150.5 75.6H160.5C160.812 75.6 160.914 75.6717 160.984 75.7774C161.037 75.8564 161.081 75.9205 161.119 75.9745C161.259 76.1774 161.3 76.2361 161.3 76.4001C161.3 78.7172 160.721 80.8334 159.763 82.5572C158.798 84.2939 157.451 85.8321 155.723 86.984C153.964 88.1564 152.021 89.1272 149.794 89.711C147.516 90.1064 145.154 90.4001 142.6 90.4001C138.857 90.4001 135.723 89.8099 132.99 88.7375C130.268 87.5697 128.153 85.9278 126.616 83.6227C125.078 81.3157 124.199 78.4134 124.1 74.893C124.1 74.1114 124.076 73.2839 124.052 72.4412L124.05 72.3608C124.025 71.485 124 70.5919 124 69.7C124 67.897 124 66.1121 124.099 64.4294Z" fill="white" stroke="#E50914"/>
<path d="M169.3 89.7999H168.8C168.477 89.7999 168.227 89.7195 168.054 89.5463C167.824 89.3165 167.7 89.0373 167.7 88.7999V50.3999C167.7 50.1625 167.824 49.8833 168.054 49.6535C168.227 49.4803 168.477 49.3999 168.8 49.3999H178.2C178.523 49.3999 178.773 49.4803 178.946 49.6535C179.12 49.8266 179.2 50.077 179.2 50.3999V62.7999V64.3994L180.111 63.0847L188.911 50.3847L188.911 50.3847L188.916 50.3773C189.079 50.1322 189.332 49.8793 189.577 49.7159L189.589 49.7082L189.6 49.6999C189.881 49.4893 190.159 49.3999 190.8 49.3999H201.6C201.912 49.3999 202.014 49.4716 202.084 49.5773L202.111 49.6184L202.146 49.6535C202.354 49.8608 202.4 50.034 202.4 50.1999C202.4 50.2817 202.345 50.4804 202.267 50.6468L189.889 68.5152L189.693 68.7984L189.888 69.0825L203.388 88.7825L203.414 88.8207L203.446 88.8535C203.466 88.8732 203.474 88.8855 203.477 88.8909C203.48 88.8961 203.483 88.9042 203.487 88.9209C203.491 88.9397 203.495 88.9685 203.497 89.0164C203.5 89.066 203.5 89.122 203.5 89.1999C203.5 89.5122 203.428 89.6134 203.323 89.6839L203.281 89.7113L203.246 89.7463C203.039 89.9536 202.866 89.9999 202.7 89.9999H191.6C190.854 89.9999 190.416 89.8089 190.254 89.6463C190.05 89.4426 189.911 89.3033 189.809 89.1904C189.708 89.0786 189.668 89.0174 189.647 88.9763L189.631 88.9443L189.611 88.915L180.111 75.215L179.2 73.9014V75.4999V88.9999C179.2 89.3228 179.12 89.5732 178.946 89.7463C178.773 89.9195 178.523 89.9999 178.2 89.9999H169.3V89.7999Z" fill="white" stroke="#E50914"/>
<path d="M6.1 40.9113C6.00553 40.8709 5.92328 40.8162 5.85355 40.7464C5.68277 40.5757 5.60585 40.4558 5.56424 40.3518C5.52231 40.247 5.5 40.1181 5.5 39.9V1.5C5.5 1.26262 5.62373 0.98338 5.85355 0.753553L5.88856 0.718545L5.91603 0.67735C5.96373 0.605794 6.11923 0.5 6.6 0.5H14.5C15.0888 0.5 15.4544 0.661466 15.7464 0.953553C15.9313 1.13841 16.07 1.30014 16.1755 1.42912C16.1979 1.45652 16.2222 1.48687 16.2472 1.51806C16.2965 1.57968 16.3484 1.64457 16.3937 1.69643L25.8667 18.1495L26.3 18.9021L26.7333 18.1495L36.2333 1.64948L36.2406 1.63675L36.2465 1.625C36.2466 1.62504 36.255 1.61091 36.2843 1.57769C36.3188 1.53862 36.363 1.49413 36.4286 1.42855L36.4332 1.42391C36.5578 1.29927 36.7286 1.12851 36.9 0.9C37.0715 0.671302 37.3903 0.5 38 0.5H45.9C46.2229 0.5 46.4733 0.580393 46.6464 0.753553C46.8196 0.926714 46.9 1.17707 46.9 1.5V39.9C46.9 40.2229 46.8196 40.4733 46.6464 40.6464C46.4733 40.8196 46.2229 40.9 45.9 40.9H37C36.6771 40.9 36.4267 40.8196 36.2536 40.6464C36.0804 40.4733 36 40.2229 36 39.9V20.7V18.7952L35.0645 20.4544L29.7742 29.8372C29.6069 30.0833 29.3506 30.3423 29.0464 30.6464C28.8595 30.8334 28.4974 31 28 31H24.4C23.9311 31 23.6587 30.8516 23.4536 30.6464C23.1494 30.3423 22.8931 30.0833 22.7258 29.8372L17.4355 20.4544L16.5 18.7952V20.7V39.9C16.5 40.2229 16.4196 40.4733 16.2464 40.6464C16.0733 40.8196 15.8229 40.9 15.5 40.9H6.6H6.1V40.9113Z" fill="white" stroke="#E50914"/>
<path d="M52.2833 40.9C52.2563 40.8772 52.2351 40.8512 52.216 40.8226C52.1122 40.6669 52.0308 40.5434 51.9722 40.4264C51.9143 40.3105 51.9 40.2407 51.9 40.2C51.9 40.1745 51.9 40.1534 51.9002 40.1339C51.9003 40.1237 51.9004 40.1146 51.9006 40.1065L51.9334 40.0737L51.9712 39.9674L65.4609 1.99628C65.6511 1.61623 65.8176 1.29571 66.1342 0.973119C66.5438 0.650846 66.9316 0.5 67.5 0.5H78.3C79.0008 0.5 79.3615 0.66854 79.6465 0.953553C80.0316 1.33872 80.2492 1.65838 80.315 1.92127L80.321 1.94543L80.3294 1.96888L93.9093 39.8128C93.9165 39.8588 93.9264 39.8972 93.9333 39.9222C93.947 39.9725 93.9643 40.0238 93.9757 40.0581C93.9874 40.0931 93.9947 40.1156 93.9997 40.1329C93.9948 40.4196 93.9246 40.516 93.8227 40.584L93.7815 40.6114L93.7465 40.6464C93.5392 40.8537 93.3659 40.9 93.2 40.9H84C83.3895 40.9 83.0332 40.726 82.8536 40.5464C82.6075 40.3004 82.4374 40.054 82.2498 39.7732L80.4705 34.8306L80.3514 34.5H80H65.8H65.4486L65.3296 34.8306L63.5296 39.8306L63.5294 39.8306L63.5257 39.8419C63.4571 40.0475 63.3095 40.2835 63.0465 40.5464C62.8669 40.726 62.5106 40.9 61.9 40.9H52.7H52.2833ZM94.0046 40.1516C94.0046 40.1517 94.0043 40.1505 94.0039 40.1481C94.0044 40.1503 94.0046 40.1514 94.0046 40.1516ZM68.0253 24.943L67.808 25.6H68.5H77.3H77.9921L77.7747 24.943L73.3747 11.643L72.9 10.2081L72.4253 11.643L68.0253 24.943Z" fill="white" stroke="#E50914"/>
<path d="M125.895 2.35625L125.895 2.35632L125.903 2.35957C128.61 3.51991 130.736 5.35493 132.284 7.67735C133.824 9.98693 134.702 12.8921 134.8 16.3143L134.8 16.3218L134.801 16.3294C134.9 18.013 134.9 19.4995 134.9 20.8C134.9 22.1013 134.9 23.5865 134.801 25.1688L134.801 25.173C134.603 28.8216 133.816 31.8303 132.376 34.135C130.936 36.4391 128.819 38.177 126.2 39.3417C123.485 40.5048 120.259 41 116.4 41H99.9C99.5771 41 99.3267 40.9196 99.1535 40.7464C98.9237 40.5166 98.8 40.2374 98.8 40V1.5C98.8 1.27097 98.9152 1.00299 99.1297 0.778001C99.438 0.552287 99.6312 0.5 99.9 0.5H116.1C119.847 0.5 123.074 1.09163 125.895 2.35625ZM116.1 31.9C117.437 31.9 118.625 31.6966 119.623 31.1478C120.629 30.6951 121.397 29.9144 121.937 28.9428C122.487 27.9525 122.8 26.6644 122.8 25.1C122.8 24.5635 122.824 24.0246 122.849 23.4988L122.853 23.4156C122.877 22.9235 122.9 22.4398 122.9 22V21.9947V21.9895V21.9842V21.9789V21.9736V21.9684V21.9631V21.9578V21.9525V21.9473V21.942V21.9367V21.9314V21.9262V21.9209V21.9156V21.9104V21.9051V21.8998V21.8945V21.8893V21.884V21.8787V21.8734V21.8682V21.8629V21.8576V21.8523V21.8471V21.8418V21.8365V21.8312V21.826V21.8207V21.8154V21.8102V21.8049V21.7996V21.7943V21.7891V21.7838V21.7785V21.7732V21.768V21.7627V21.7574V21.7521V21.7469V21.7416V21.7363V21.7311V21.7258V21.7205V21.7152V21.71V21.7047V21.6994V21.6941V21.6889V21.6836V21.6783V21.673V21.6678V21.6625V21.6572V21.652V21.6467V21.6414V21.6361V21.6309V21.6256V21.6203V21.615V21.6098V21.6045V21.5992V21.5939V21.5887V21.5834V21.5781V21.5729V21.5676V21.5623V21.557V21.5518V21.5465V21.5412V21.5359V21.5307V21.5254V21.5201V21.5148V21.5096V21.5043V21.499V21.4937V21.4885V21.4832V21.4779V21.4727V21.4674V21.4621V21.4568V21.4516V21.4463V21.441V21.4357V21.4305V21.4252V21.4199V21.4146V21.4094V21.4041V21.3988V21.3936V21.3883V21.383V21.3777V21.3725V21.3672V21.3619V21.3566V21.3514V21.3461V21.3408V21.3355V21.3303V21.325V21.3197V21.3145V21.3092V21.3039V21.2986V21.2934V21.2881V21.2828V21.2775V21.2723V21.267V21.2617V21.2564V21.2512V21.2459V21.2406V21.2354V21.2301V21.2248V21.2195V21.2143V21.209V21.2037V21.1984V21.1932V21.1879V21.1826V21.1773V21.1721V21.1668V21.1615V21.1562V21.151V21.1457V21.1404V21.1352V21.1299V21.1246V21.1193V21.1141V21.1088V21.1035V21.0982V21.093V21.0877V21.0824V21.0771V21.0719V21.0666V21.0613V21.0561V21.0508V21.0455V21.0402V21.035V21.0297V21.0244V21.0191V21.0139V21.0086V21.0033V20.998V20.9928V20.9875V20.9822V20.977V20.9717V20.9664V20.9611V20.9559V20.9506V20.9453V20.94V20.9348V20.9295V20.9242V20.9189V20.9137V20.9084V20.9031V20.8979V20.8926V20.8873V20.882V20.8768V20.8715V20.8662V20.8609V20.8557V20.8504V20.8451V20.8398V20.8346V20.8293V20.824V20.8188V20.8135V20.8082V20.8029V20.7977V20.7924V20.7871V20.7818V20.7766V20.7713V20.766V20.7607V20.7555V20.7502V20.7449V20.7396V20.7344V20.7291V20.7238V20.7186V20.7133V20.708V20.7027V20.6975V20.6922V20.6869V20.6816V20.6764V20.6711V20.6658V20.6605V20.6553V20.65V20.6447V20.6395V20.6342V20.6289V20.6236V20.6184V20.6131V20.6078V20.6025V20.5973V20.592V20.5867V20.5814V20.5762V20.5709V20.5656V20.5604V20.5551V20.5498V20.5445V20.5393V20.534V20.5287V20.5234V20.5182V20.5129V20.5076V20.5023V20.4971V20.4918V20.4865V20.4812V20.476V20.4707V20.4654V20.4602V20.4549V20.4496V20.4443V20.4391V20.4338V20.4285V20.4232V20.418V20.4127V20.4074V20.4021V20.3969V20.3916V20.3863V20.3811V20.3758V20.3705V20.3652V20.36V20.3547V20.3494V20.3441V20.3389V20.3336V20.3283V20.323V20.3178V20.3125V20.3072V20.302V20.2967V20.2914V20.2861V20.2809V20.2756V20.2703V20.265V20.2598V20.2545V20.2492V20.2439V20.2387V20.2334V20.2281V20.2229V20.2176V20.2123V20.207V20.2018V20.1965V20.1912V20.1859V20.1807V20.1754V20.1701V20.1648V20.1596V20.1543V20.149V20.1437V20.1385V20.1332V20.1279V20.1227V20.1174V20.1121V20.1068V20.1016V20.0963V20.091V20.0857V20.0805V20.0752V20.0699V20.0646V20.0594V20.0541V20.0488V20.0436V20.0383V20.033V20.0277V20.0225V20.0172V20.0119V20.0066V20.0014V19.9961V19.9908V19.9855V19.9803V19.975V19.9697V19.9645V19.9592V19.9539V19.9486V19.9434V19.9381V19.9328V19.9275V19.9223V19.917V19.9117V19.9064V19.9012V19.8959V19.8906V19.8854V19.8801V19.8748V19.8695V19.8643V19.859V19.8537V19.8484V19.8432V19.8379V19.8326V19.8273V19.8221V19.8168V19.8115V19.8062V19.801V19.7957V19.7904V19.7852V19.7799V19.7746V19.7693V19.7641V19.7588V19.7535V19.7482V19.743V19.7377V19.7324V19.7271V19.7219V19.7166V19.7113V19.7061V19.7008V19.6955V19.6902V19.685V19.6797V19.6744V19.6691V19.6639V19.6586V19.6533V19.648V19.6428V19.6375V19.6322V19.627V19.6217V19.6164V19.6111V19.6059V19.6006V19.5953V19.59V19.5848V19.5795V19.5742V19.5689V19.5637V19.5584V19.5531V19.5479V19.5426V19.5373V19.532V19.5268V19.5215V19.5162V19.5109V19.5057V19.5004V19.4951V19.4898V19.4846V19.4793V19.474V19.4688V19.4635V19.4582V19.4529V19.4477V19.4424V19.4371V19.4318V19.4266V19.4213V19.416V19.4107V19.4055V19.4002V19.3949V19.3896V19.3844V19.3791V19.3738V19.3686V19.3633V19.358V19.3527V19.3475V19.3422V19.3369V19.3316V19.3264V19.3211V19.3158V19.3105V19.3053V19.3V19.2929C122.9 18.3991 122.9 17.3841 122.799 16.266C122.695 14.0168 122.077 12.2393 120.71 11.2078C119.404 10.1232 117.786 9.6 115.7 9.6H111H110.5V10.1V31.4V31.9H111H111.1H116.1Z" fill="white" stroke="#E50914"/>
</g>
<defs>
<clipPath id="clip0">
<rect width="209" height="90.9" fill="white"/>
</clipPath>
</defs>
</svg>
