<svg  viewBox="0 0 16 16" fill="none" xmlns="http://www.w3.org/2000/svg">
<path d="M8 16C12.4183 16 16 12.4183 16 8C16 3.58172 12.4183 0 8 0C3.58172 0 0 3.58172 0 8C0 12.4183 3.58172 16 8 16Z" fill="#006EFF"/>
<path d="M11.9734 10.1533C11.73 9.53066 10.0724 8.78434 9.50209 9.13299C9.19297 9.32124 9.39459 10.4223 8.26617 9.88488C7.82394 9.6738 7.39117 9.34575 7.02079 8.97927C6.65375 8.60889 6.32569 8.17614 6.11516 7.73335C5.57768 6.60551 6.67881 6.80658 6.86707 6.49802C7.21517 5.92714 6.46883 4.27019 5.8467 4.0268C5.46016 3.87586 4.59574 4.39717 4.34232 4.72522C3.78981 5.4398 3.91234 7.08895 4.66481 8.32429C5.00902 8.89127 5.51252 9.47886 6.00766 9.99238C6.52119 10.4881 7.10879 10.9904 7.67579 11.3352C8.91059 12.0877 10.5598 12.2102 11.2749 11.6577C11.603 11.4037 12.1237 10.5393 11.9734 10.1533Z" fill="white"/>
</svg>
