<svg viewBox="0 0 15 15" fill="none" xmlns="http://www.w3.org/2000/svg">
<path d="M14.5765 0.436599C14.2014 0.0508086 13.6462 -0.0918811 13.1284 0.0591132L1.056 3.56898C0.509774 3.72148 0.122615 4.1571 0.0183226 4.70974C-0.088221 5.27295 0.283931 5.98866 0.77013 6.28763L4.54493 8.6069C4.93208 8.84547 5.43179 8.78583 5.75217 8.4627L10.0747 4.11331C10.2923 3.88606 10.6524 3.88606 10.87 4.11331C11.0876 4.3315 11.0876 4.68709 10.87 4.91358L6.53999 9.26297C6.21886 9.5861 6.15884 10.0874 6.39518 10.4777L8.70163 14.2903C8.97174 14.7426 9.43693 15 9.94714 15C10.0072 15 10.0747 15 10.1347 14.9917C10.72 14.917 11.1851 14.5161 11.3577 13.9498L14.9367 1.89369C15.0942 1.38031 14.9517 0.821634 14.5765 0.436599Z" fill="white"/>
</svg>
