<svg  viewBox="0 0 34 35" fill="none" xmlns="http://www.w3.org/2000/svg">
<ellipse cx="17.0109" cy="17.9412" rx="16.1749" ry="17" fill="#151515"/>
<path d="M14.1732 23.5493C13.7197 23.5493 13.7968 23.3693 13.6403 22.9154L12.3066 18.3022L22.5729 11.9011" fill="#C8DAEA"/>
<path d="M14.1738 23.5477C14.5238 23.5477 14.6784 23.3795 14.8738 23.1799L16.7404 21.2723L14.4121 19.7966" fill="#A9C9DD"/>
<path d="M14.4111 19.7974L20.0529 24.1782C20.6967 24.5516 21.1613 24.3583 21.3217 23.55L23.6182 12.1761C23.8533 11.1854 23.2589 10.7361 22.643 11.0299L9.15806 16.4949C8.23759 16.8829 8.24296 17.4226 8.99028 17.6631L12.4508 18.7983L20.4623 13.4861C20.8405 13.2451 21.1876 13.3747 20.9027 13.6404" fill="white"/>
</svg>
