<svg  viewBox="0 0 16 16" fill="none" xmlns="http://www.w3.org/2000/svg">
<path d="M8 16C12.4183 16 16 12.4183 16 8C16 3.58172 12.4183 0 8 0C3.58172 0 0 3.58172 0 8C0 12.4183 3.58172 16 8 16Z" fill="#006EFF"/>
<path d="M6.53346 11.6673C6.27429 11.6673 6.31833 11.5695 6.22894 11.3227L5.4668 8.81438L11.3335 5.33398" fill="#C8DAEA"/>
<path d="M6.5332 11.6665C6.7332 11.6665 6.82157 11.575 6.9332 11.4665L7.99987 10.4293L6.66934 9.62695" fill="#A9C9DD"/>
<path d="M6.6698 9.62733L9.8938 12.0093C10.2617 12.2123 10.5272 12.1072 10.6189 11.6677L11.9312 5.4835C12.0656 4.94482 11.7259 4.70049 11.3739 4.86028L3.66791 7.83168C3.1419 8.04266 3.14497 8.33612 3.57203 8.46688L5.54956 9.0841L10.1278 6.19577C10.3439 6.06471 10.5422 6.13517 10.3794 6.27966" fill="white"/>
</svg>
