<svg  viewBox="0 0 35 35" fill="none" xmlns="http://www.w3.org/2000/svg">
<circle cx="17.332" cy="17.9412" r="17" fill="#59D264"/>
<path fill-rule="evenodd" clip-rule="evenodd" d="M13.3999 11.6866C13.105 11.0337 12.7946 11.0206 12.5141 11.0092C12.2847 10.9994 12.0219 11 11.7597 11C11.4972 11 11.0707 11.0982 10.71 11.4905C10.3491 11.8829 9.33203 12.8313 9.33203 14.7603C9.33203 16.6894 10.7428 18.5534 10.9394 18.8152C11.1363 19.0766 13.6628 23.1616 17.6641 24.7332C20.9895 26.0392 21.6662 25.7794 22.3879 25.7141C23.1097 25.6487 24.717 24.7658 25.0451 23.8503C25.3731 22.9349 25.3731 22.1503 25.2747 21.9863C25.1763 21.8229 24.9138 21.7248 24.5201 21.5288C24.1264 21.3327 22.1911 20.3841 21.8302 20.2534C21.4693 20.1227 21.2068 20.0573 20.9444 20.4498C20.6819 20.842 19.9279 21.7248 19.6982 21.9863C19.4686 22.2483 19.2389 22.281 18.8452 22.0849C18.4515 21.8882 17.1836 21.4747 15.6796 20.139C14.5093 19.0999 13.7192 17.8165 13.4895 17.424C13.2599 17.0319 13.465 16.8195 13.6624 16.6241C13.8392 16.4484 14.0561 16.1664 14.253 15.9375C14.4494 15.7085 14.515 15.5451 14.6463 15.2837C14.7775 15.0218 14.7119 14.7929 14.6135 14.5968C14.515 14.4008 13.75 12.4618 13.3999 11.6866Z" fill="white"/>
</svg>
